<svg version="1.1" viewBox="0.0 0.0 172.76377952755905 172.76377952755905" fill="none" stroke="none" stroke-linecap="square" stroke-miterlimit="10" xmlns:xlink="http://www.w3.org/1999/xlink" xmlns="http://www.w3.org/2000/svg"><clipPath id="p.0"><path d="m0 0l172.76378 0l0 172.76378l-172.76378 0l0 -172.76378z" clip-rule="nonzero"/></clipPath><g clip-path="url(#p.0)"><path fill="#000000" fill-opacity="0.0" d="m0 0l172.76378 0l0 172.76378l-172.76378 0z" fill-rule="evenodd"/><path fill="#000000" fill-opacity="0.0" d="m480.0 55.175854l318.6772 0l0 129.35432l-318.6772 0z" fill-rule="evenodd"/><path fill="#f9a61a" d="m0.4606299 29.101624l0 0c0 -15.817985 12.8230095 -28.640993 28.640993 -28.640993l114.56053 0l0 0c7.5960693 0 14.881012 3.0175245 20.252243 8.388753c5.371231 5.371228 8.388748 12.6561775 8.388748 20.252241l0 114.56053c0 15.817978 -12.823013 28.640991 -28.640991 28.640991l-114.56053 0c-15.817985 0 -28.640993 -12.823013 -28.640993 -28.640991z" fill-rule="evenodd"/><path fill="#000000" d="m57.331383 132.26189l44.0625 -103.6875l13.953125 0l0.09375 103.6875l-13.703125 0l0.8125 -26.109375l-21.125 0l-10.53125 26.109375l-13.5625 0zm28.21875 -36.484375l17.28125 0l1.234375 -46.71875l-18.515625 46.71875z" fill-rule="nonzero"/></g></svg>